<?xml version="1.0" encoding="UTF-8"?>
<svg width="98px" height="35px" viewBox="0 0 98 35" version="1.1" xmlns="http://www.w3.org/2000/svg" xmlns:xlink="http://www.w3.org/1999/xlink">
    <title>Email</title>
    <g id="Page-1" stroke="none" stroke-width="1" fill="none" fill-rule="evenodd">
        <g id="Budges" transform="translate(-285.000000, -178.000000)">
            <g id="Social-media" transform="translate(13.000000, 149.000000)">
                <g id="Email" transform="translate(272.000000, 29.000000)">
                    <rect id="Rectangle" fill="#5B8CD8" x="0" y="0" width="98" height="35" rx="17.5"></rect>
                    <text font-family="Menlo-Regular, Menlo" font-size="16" font-weight="normal" fill="#FFFFFF">
                        <tspan x="39" y="23">Email</tspan>
                    </text>
                    <path d="M28.75,9.5 L12.75,9.5 C11.65,9.5 10.76,10.4 10.76,11.5 L10.75,23.5 C10.75,24.6 11.65,25.5 12.75,25.5 L28.75,25.5 C29.85,25.5 30.75,24.6 30.75,23.5 L30.75,11.5 C30.75,10.4 29.85,9.5 28.75,9.5 Z M28.35,13.75 L21.28,18.17 C20.96,18.37 20.54,18.37 20.22,18.17 L13.15,13.75 C12.9,13.59 12.75,13.32 12.75,13.03 C12.75,12.36 13.48,11.96 14.05,12.31 L20.75,16.5 L27.45,12.31 C28.02,11.96 28.75,12.36 28.75,13.03 C28.75,13.32 28.6,13.59 28.35,13.75 Z" id="Shape" fill="#FFFFFF" fill-rule="nonzero"></path>
                </g>
            </g>
        </g>
    </g>
</svg>