<?xml version="1.0" encoding="UTF-8"?>
<svg width="110px" height="35px" viewBox="0 0 110 35" version="1.1" xmlns="http://www.w3.org/2000/svg" xmlns:xlink="http://www.w3.org/1999/xlink">
    <title>Github</title>
    <g id="Page-1" stroke="none" stroke-width="1" fill="none" fill-rule="evenodd">
        <g id="Budges" transform="translate(-13.000000, -178.000000)">
            <g id="Social-media" transform="translate(13.000000, 149.000000)">
                <g id="Github" transform="translate(0.000000, 29.000000)">
                    <rect id="Rectangle" fill="#000000" x="0" y="0" width="110" height="35" rx="17.5"></rect>
                    <text font-family="Menlo-Regular, Menlo" font-size="16" font-weight="normal" fill="#FFFFFF">
                        <tspan x="42" y="23">Github</tspan>
                    </text>
                    <path d="M21.5389917,6 C15.8801081,6.00023466 11.056526,10.1043091 10.1500466,15.6901178 C9.24356724,21.2759264 12.5217449,26.6947753 17.8901418,28.4845454 C18.4670387,28.5855254 18.683375,28.2393988 18.683375,27.9364933 C18.683375,27.6624788 18.6689411,26.7538546 18.6689411,25.7875639 C15.7700226,26.321182 15.0200566,25.0808998 14.7892979,24.4318907 C14.533243,23.8006789 14.1273381,23.2413102 13.6066592,22.8021224 C13.2028314,22.585786 12.6259345,22.0521564 13.5922252,22.0377571 C14.3410447,22.1190119 15.003161,22.5604069 15.3661948,23.2203611 C15.6849088,23.7929099 16.2183843,24.2150755 16.8488573,24.3936657 C17.4793304,24.5722558 18.1549579,24.4925852 18.7265962,24.172241 C18.7765451,23.5856782 19.0379585,23.0372563 19.4621628,22.6290879 C16.8949716,22.3406395 14.212401,21.3454462 14.212401,16.932231 C14.1961875,15.7855278 14.6193271,14.6760764 15.3950396,13.8314101 C15.0423038,12.8347855 15.0835764,11.7410631 15.510419,10.7738565 C15.510419,10.7738565 16.4766867,10.4709741 18.683352,11.9564952 C20.571291,11.4372571 22.564382,11.4372571 24.452321,11.9564952 C26.6589286,10.4565632 27.625254,10.7738565 27.625254,10.7738565 C28.0521546,11.7410497 28.0934279,12.8347944 27.7406334,13.8314101 C28.5186818,14.6746307 28.9421908,15.7850508 28.923272,16.932231 C28.923272,21.3598801 26.2262559,22.3406395 23.6590878,22.6290879 C24.2162462,23.1937987 24.5004686,23.9727785 24.4378986,24.7636065 C24.4378986,26.3068288 24.4234646,27.547111 24.4234646,27.9365394 C24.4234646,28.2394219 24.639801,28.5999709 25.2166979,28.4845915 C30.5752,26.6803669 33.8383315,21.2605478 32.9256445,15.6806039 C32.0129575,10.1006601 27.1930842,6.00294275 21.5389917,6 Z" id="Path" fill="#FFFFFF" fill-rule="nonzero"></path>
                </g>
            </g>
        </g>
    </g>
</svg>