<?xml version="1.0" encoding="UTF-8"?>
<svg width="122px" height="35px" viewBox="0 0 122 35" version="1.1" xmlns="http://www.w3.org/2000/svg" xmlns:xlink="http://www.w3.org/1999/xlink">
    <title>Twitter</title>
    <g id="Page-1" stroke="none" stroke-width="1" fill="none" fill-rule="evenodd">
        <g id="Budges" transform="translate(-143.000000, -178.000000)">
            <g id="Social-media" transform="translate(13.000000, 149.000000)">
                <g id="Twitter" transform="translate(130.000000, 29.000000)">
                    <rect id="Rectangle" fill="#1D9BF0" x="0" y="0" width="122" height="35" rx="17.5"></rect>
                    <text font-family="Menlo-Regular, Menlo" font-size="16" font-weight="normal" fill="#FFFFFF">
                        <tspan x="44" y="23">Twitter</tspan>
                    </text>
                    <path d="M33.0572341,10.3863637 C34.1789514,9.71624107 35.0195454,8.66201537 35.423084,7.41924802 C34.3689765,8.04673829 33.2150821,8.48884341 32.0115545,8.72634745 C30.3569988,6.93206961 27.6990677,6.48239508 25.5463659,7.63255287 C23.3936642,8.78271065 22.290025,11.2421385 22.8618585,13.6148993 C18.5515158,13.3968844 14.5365744,11.3585295 11.8168682,8.00744276 C11.345185,8.83113573 11.0973352,9.76395221 11.0979635,10.7131386 C11.0945664,12.5034877 11.9875918,14.1766835 13.4768845,15.1703477 C12.6246261,15.147159 11.7905768,14.918468 11.0456795,14.503727 L11.0456795,14.5690819 C11.0588484,17.115286 12.8618041,19.3006868 15.3591077,19.7974797 C14.8928071,19.9393869 14.408683,20.0142061 13.9212983,20.0196866 C13.5839232,20.0157451 13.2473869,19.9851509 12.9148317,19.9281896 C13.6219408,22.1060044 15.631713,23.5962794 17.9210226,23.640352 C16.0351429,25.1242584 13.7067817,25.9341232 11.3070994,25.940847 C10.8701822,25.9422797 10.4336114,25.9160855 10,25.8624211 C12.4500642,27.4443472 15.305272,28.2841142 18.2216555,28.280555 C22.2870785,28.322774 26.1988545,26.7291339 29.0773827,23.8579803 C31.9559108,20.9868267 33.5595801,17.0791516 33.5277899,13.0136336 C33.5277899,12.7914267 33.5277899,12.5561488 33.5277899,12.3208709 C34.5534647,11.5559704 35.4380824,10.6182757 36.1419887,9.5498201 C35.1594906,9.97605837 34.1204651,10.257828 33.0572341,10.3863637 Z" id="Path" fill="#FFFFFF" fill-rule="nonzero"></path>
                </g>
            </g>
        </g>
    </g>
</svg>