<?xml version="1.0" encoding="UTF-8"?>
<svg width="130px" height="35px" viewBox="0 0 130 35" version="1.1" xmlns="http://www.w3.org/2000/svg" xmlns:xlink="http://www.w3.org/1999/xlink">
    <title>Alamofire</title>
    <g id="Page-1" stroke="none" stroke-width="1" fill="none" fill-rule="evenodd">
        <g id="Artboard" transform="translate(-264.000000, -68.000000)">
            <g id="Alamofire" transform="translate(264.000000, 68.000000)">
                <rect id="Rectangle" fill="#C64C2C" x="0" y="0" width="130" height="35" rx="17.5"></rect>
                <text font-family="Menlo-Regular, Menlo" font-size="16" font-weight="normal" fill="#FFFFFF">
                    <tspan x="33" y="23">Alamofire</tspan>
                </text>
                <path d="M22.9032314,25.2833109 C21.3691708,27.006943 19.2397383,28 17.0581564,28 C16.4801675,28 15.9021787,27.9256301 15.341573,27.7856397 C13.7944751,27.400666 12.4733577,26.5519741 11.4086415,25.2614374 C11.3738752,25.2176904 8.42743594,21.4117008 11.160932,16.8707615 C11.3086885,16.630153 11.4738282,16.411418 11.6042016,16.2451793 C12.7949455,14.7359076 13.9596147,12.6491754 13.3251308,11.7261136 C13.2243418,11.5764494 13.2260721,11.3796175 13.3294765,11.2317724 C13.4294295,11.0786579 13.6162981,11.0086627 13.7901293,11.0567844 C13.9596147,11.0961567 15.2720405,11.5117532 15.5545162,14.1278242 C15.8413378,13.5153661 16.093393,12.6972971 16.0325521,11.7654859 C15.9412907,10.3524576 15.1720875,9.00942447 13.7423257,7.76700948 C13.5881459,7.6329261 13.5482685,7.40849122 13.6467185,7.2289213 C13.7423257,7.04955858 13.955269,6.95768986 14.1464833,7.01893567 C14.2464363,7.04518388 23.5333696,9.8799899 22.1253366,19.5699518 C22.6685592,18.983742 23.2726227,17.8463198 23.1248662,15.7639623 C23.1118288,15.5583513 23.2378565,15.3746139 23.4290708,15.3133681 C23.624631,15.2521223 23.8332284,15.3352416 23.9331814,15.5102296 C23.9636018,15.562726 26.8970038,20.7904933 22.9032314,25.2833109 Z" id="Path" fill="#FFFFFF" fill-rule="nonzero"></path>
            </g>
        </g>
    </g>
</svg>