<?xml version="1.0" encoding="UTF-8"?>
<svg width="131px" height="35px" viewBox="0 0 131 35" version="1.1" xmlns="http://www.w3.org/2000/svg" xmlns:xlink="http://www.w3.org/1999/xlink">
    <title>Core Data</title>
    <g id="Page-1" stroke="none" stroke-width="1" fill="none" fill-rule="evenodd">
        <g id="Artboard" transform="translate(-13.000000, -68.000000)">
            <g id="Core-Data" transform="translate(13.000000, 68.000000)">
                <rect id="Rectangle" fill="#4482C6" x="0" y="0" width="131" height="35" rx="17.5"></rect>
                <text font-family="Menlo-Regular, Menlo" font-size="16" font-weight="normal" fill="#FFFFFF">
                    <tspan x="36" y="23">Core Data</tspan>
                </text>
                <path d="M14,23 C13.4477153,23 13,23.4477153 13,24 C13,24.5522847 13.4477153,25 14,25 C14.5522847,25 15,24.5522847 15,24 C15,23.4477153 14.5522847,23 14,23 Z M19,7 C14.5,7 10,8.507 10,11.4 L10,24.6 C10,27.493 14.5,29 19,29 C23.5,29 28,27.493 28,24.6 L28,11.4 C28,8.507 23.5,7 19,7 Z M26,24.7229602 C26,25.5313093 23.34,27 19,27 C14.66,27 12,25.5313093 12,24.7229602 L12,21 C14.1840815,22.0132346 16.5825401,22.5086603 19,22.4459203 C21.4174599,22.5086603 23.8159185,22.0132346 26,21 L26,24.7229602 Z M26,17.7229602 C26,18.5313093 23.34,20 19,20 C14.66,20 12,18.5313093 12,17.7229602 L12,14 C14.1840815,15.0132346 16.5825401,15.5086603 19,15.4459203 C21.4174599,15.5086603 23.8159185,15.0132346 26,14 L26,17.7229602 Z M19,13 C14.66,13 12,11.71 12,11 C12,10.29 14.66,9 19,9 C23.34,9 26,10.29 26,11 C26,11.71 23.34,13 19,13 Z M14,16 C13.4477153,16 13,16.4477153 13,17 C13,17.5522847 13.4477153,18 14,18 C14.5522847,18 15,17.5522847 15,17 C15,16.4477153 14.5522847,16 14,16 Z" id="Shape" fill="#FFFFFF" fill-rule="nonzero"></path>
            </g>
        </g>
    </g>
</svg>