<?xml version="1.0" encoding="UTF-8"?>
<svg width="142px" height="35px" viewBox="0 0 142 35" version="1.1" xmlns="http://www.w3.org/2000/svg" xmlns:xlink="http://www.w3.org/1999/xlink">
    <title>CocoaPods</title>
    <g id="Page-1" stroke="none" stroke-width="1" fill="none" fill-rule="evenodd">
        <g id="Artboard" transform="translate(-351.000000, -13.000000)">
            <g id="CocoaPods" transform="translate(351.000000, 13.000000)">
                <rect id="Rectangle" fill="#E73325" x="0" y="0" width="142" height="35" rx="17.5"></rect>
                <text font-family="Menlo-Regular, Menlo" font-size="16" font-weight="normal" fill="#FFFFFF">
                    <tspan x="45" y="23">CocoaPods</tspan>
                </text>
                <path d="M37,29 L13,29 L13,5 L37,5 L37,29 Z M22.789,12.2 C22.739,12.198 22.681,12.197 22.623,12.197 C21.238,12.197 19.988,12.772 19.098,13.697 L19.097,13.699 C18.293,14.581 17.8,15.76 17.8,17.054 C17.8,17.079 17.8,17.104 17.801,17.129 L17.801,17.125 C17.8,17.16 17.8,17.202 17.8,17.243 C17.8,19.898 19.952,22.05 22.607,22.05 C22.681,22.05 22.755,22.048 22.828,22.045 L22.818,22.045 C22.856,22.046 22.9,22.047 22.944,22.047 C24.105,22.047 25.172,21.648 26.017,20.981 L26.007,20.989 C26.771,20.359 27.309,19.478 27.496,18.475 L27.5,18.449 L25.2,18.449 C24.903,19.412 24.021,20.099 22.979,20.099 C22.931,20.099 22.883,20.098 22.836,20.095 L22.842,20.095 C22.828,20.095 22.812,20.095 22.795,20.095 C22.004,20.095 21.291,19.762 20.788,19.228 L20.787,19.227 C20.302,18.686 20.006,17.968 20.006,17.181 C20.006,17.162 20.006,17.142 20.007,17.123 L20.007,17.126 C20.007,17.11 20.007,17.09 20.007,17.071 C20.007,16.302 20.284,15.598 20.743,15.053 L20.739,15.058 C21.23,14.502 21.944,14.154 22.74,14.154 C22.768,14.154 22.796,14.154 22.823,14.155 L22.819,14.155 C22.843,14.154 22.871,14.154 22.899,14.154 C23.494,14.154 24.04,14.362 24.469,14.71 L24.464,14.706 C24.859,15.053 25.134,15.528 25.225,16.066 L25.227,16.08 L27.487,16.08 C27.365,14.981 26.845,14.023 26.078,13.336 L26.074,13.332 C25.234,12.627 24.141,12.199 22.948,12.199 C22.893,12.199 22.839,12.2 22.785,12.202 L22.793,12.202 L22.789,12.2 Z M30.123,12.419 L28.741,13.011 L30.472,17.06 L28.74,21.11 L30.122,21.7 L31.284,18.963 L31.29,18.976 L32.094,17.056 L30.123,12.419 Z" id="Shape" fill="#FFFFFF" fill-rule="nonzero"></path>
            </g>
        </g>
    </g>
</svg>