<?xml version="1.0" encoding="UTF-8"?>
<svg width="80px" height="35px" viewBox="0 0 80 35" version="1.1" xmlns="http://www.w3.org/2000/svg" xmlns:xlink="http://www.w3.org/1999/xlink">
    <title>Git</title>
    <g id="Page-1" stroke="none" stroke-width="1" fill="none" fill-rule="evenodd">
        <g id="Artboard" transform="translate(-164.000000, -68.000000)">
            <g id="Git" transform="translate(164.000000, 68.000000)">
                <rect id="Rectangle" fill="#DE4C36" x="0" y="0" width="80" height="35" rx="17.5"></rect>
                <text font-family="Menlo-Regular, Menlo" font-size="16" font-weight="normal" fill="#FFFFFF">
                    <tspan x="41" y="23">Git</tspan>
                </text>
                <path d="M32.5662784,16.4754141 L22.5242432,6.43375121 C21.9462772,5.85541626 21.0083067,5.85541626 20.4296219,6.43375121 L18.3443444,8.51906334 L20.9896191,11.164382 C21.6043313,10.9566594 22.3092467,11.0960096 22.7992555,11.5860265 C23.2916002,12.079188 23.4299598,12.7901348 23.2172094,13.4068337 L25.7665308,15.9562873 C26.3833093,15.7438029 27.0949631,15.8812664 27.5875773,16.3746974 C28.2760513,17.0629133 28.2760513,18.1783441 27.5875773,18.8670093 C26.8989236,19.5557642 25.7835113,19.5557642 25.0944982,18.8670093 C24.5766378,18.3486012 24.4487001,17.5880597 24.7108647,16.9500674 L22.3334147,14.572578 L22.3331452,20.8291433 C22.5054907,20.9143603 22.6628984,21.0269263 22.7992555,21.1624698 C23.4877295,21.8506857 23.4877295,22.9662064 22.7992555,23.6554106 C22.1106018,24.3438062 20.9946504,24.3438062 20.306985,23.6554106 C19.618511,22.9662064 19.618511,21.8507756 20.306985,21.1625597 C20.4719733,20.9974854 20.6680484,20.8667563 20.8838728,20.7779314 L20.8838728,14.4630564 C20.6677344,14.3748225 20.4715486,14.2440196 20.306985,14.0784282 C19.7853511,13.5575045 19.659929,12.7921114 19.9272147,12.1516034 L17.3195846,9.54366048 L10.4339462,16.428964 C9.85535128,17.007838 9.85535128,17.945914 10.4339462,18.5243388 L20.4761611,28.5661814 C21.0543067,29.1446062 21.9920976,29.1446062 22.5709621,28.5661814 L32.5661886,18.5709686 C33.1446038,17.9923641 33.1446038,17.053749 32.5661886,16.4754141" id="Path" fill="#FFFFFF" fill-rule="nonzero"></path>
            </g>
        </g>
    </g>
</svg>