<?xml version="1.0" encoding="UTF-8"?>
<svg width="88px" height="35px" viewBox="0 0 88 35" version="1.1" xmlns="http://www.w3.org/2000/svg" xmlns:xlink="http://www.w3.org/1999/xlink">
    <title>Swift</title>
    <g id="Page-1" stroke="none" stroke-width="1" fill="none" fill-rule="evenodd">
        <g id="Artboard" transform="translate(-22.000000, -19.000000)">
            <g id="Swift" transform="translate(22.000000, 19.000000)">
                <rect id="Rectangle" fill="#DD5D43" x="0" y="0" width="88" height="35" rx="17.5"></rect>
                <text font-family="Helvetica" font-size="16" font-weight="normal" fill="#FFFFFF">
                    <tspan x="43" y="23">Swift</tspan>
                </text>
                <path d="M25.4090827,8 C36.3994992,14.3704286 32.8355043,21.3705714 32.8355043,21.3705714 C32.8355043,21.3705714 35.9573201,24.3712143 34.7026564,27 C34.7026564,27 33.4073684,25.1637857 31.2574092,25.1637857 C29.1793236,25.1637857 27.9496595,27 23.7544266,27 C14.4233536,27 10,20.3581429 10,20.3581429 C18.4092155,25.081 24.154419,21.7342857 24.154419,21.7342857 C20.357616,19.8641429 12.3046438,10.9083571 12.3046438,10.9083571 C19.3248231,15.999 22.3544531,17.3357857 22.3544531,17.3357857 C20.5326127,16.0655 15.4561465,9.84028571 15.4561465,9.84028571 C19.5185694,13.3403571 27.5934162,18.2206429 27.5934162,18.2206429 C29.9089973,12.8273571 25.4090827,8 25.4090827,8 Z" id="Path" fill="#FFFFFF" fill-rule="nonzero"></path>
            </g>
        </g>
    </g>
</svg>