<?xml version="1.0" encoding="UTF-8"?>
<svg width="98px" height="35px" viewBox="0 0 98 35" version="1.1" xmlns="http://www.w3.org/2000/svg" xmlns:xlink="http://www.w3.org/1999/xlink">
    <title>Xcode</title>
    <g id="Page-1" stroke="none" stroke-width="1" fill="none" fill-rule="evenodd">
        <g id="Artboard" transform="translate(-130.000000, -19.000000)">
            <g id="Xcode" transform="translate(130.000000, 19.000000)">
                <rect id="Rectangle" fill="#4897E4" x="0" y="0" width="98" height="35" rx="17.5"></rect>
                <text font-family="Helvetica" font-size="16" font-weight="normal" fill="#FFFFFF">
                    <tspan x="42" y="23">Xcode</tspan>
                </text>
                <g id="xcode" transform="translate(10.000000, 6.000000)" fill="#FFFFFF" fill-rule="nonzero">
                    <path d="M18.4,16.2598076 C18.2,16.1598076 17.8,16.0598076 17.5,15.8598076 C17.2,17.0598076 16.9,18.4598076 16.6,19.9598076 L22.9,18.9598076 L20.8,4.85980762 L20.7,4.95980762 C20.3,5.35980762 19.8,6.65980762 18.8,10.4598076 L18.9,10.4598076 L19.2,12.0598076 L18.4,12.1598076 C18.3,12.6598076 18.2,13.1598076 18,13.7598076 C19.7,14.6598076 18.8,16.8598076 18.7,16.8598076 C18.6,16.8598076 18.6,16.8598076 18.6,16.7598076 C18.6,16.6598076 18.7,16.3598076 18.4,16.2598076 Z" id="Path"></path>
                    <path d="M22.7,1.55980762 C22.6,1.65980762 22.4,1.75980762 22,1.75980762 C21.6,1.75980762 21.2,1.45980762 20.9,1.15980762 C20.4,0.659807621 19.8,0.459807621 19.2,0.259807621 C18.6,0.0598076211 17.9,0.0598076211 17.3,0.0598076211 C16.4,-0.0401923789 15.4,-0.0401923789 14.5,0.259807621 C14.1,0.359807621 13.8,0.459807621 13.4,0.659807621 C13.3,0.759807621 13,0.859807621 12.9,0.859807621 C12.8,0.959807621 12.8,1.05980762 12.9,1.05980762 C13,1.05980762 13.4,0.959807621 13.4,0.959807621 C13.4,0.959807621 12.9,1.15980762 12.9,1.35980762 C12.9,1.45980762 13,1.45980762 13,1.45980762 C13,1.45980762 13.3,1.35980762 13.5,1.35980762 C13.9,1.35980762 14.5,1.15980762 15,1.15980762 C15.6,1.15980762 16.2,1.35980762 16.8,1.95980762 C17.7,3.05980762 17.6,4.45980762 17.6,4.75980762 C17.4,6.85980762 12.7,19.6598076 12.5,20.5598076 C12.3,21.4598076 12.3,21.9598076 13.4,22.2598076 C14.5,22.5598076 14.9,22.2598076 15.1,21.8598076 C15.2,21.1598076 18.2,5.35980762 20,3.95980762 C20.4,3.75980762 20.6,3.55980762 20.9,3.55980762 C21.4,3.55980762 21.7,3.85980762 21.8,4.05980762 C22,4.35980762 22.7,4.55980762 23,4.55980762 C23.2,4.55980762 23.5,3.85980762 23.7,3.25980762 C23.9,2.65980762 23.9,1.95980762 23.8,1.85980762 C23.7,1.75980762 22.9,1.55980762 22.7,1.55980762 Z" id="Path"></path>
                    <path d="M10.1,5.25980762 C10.4,5.05980762 10.8,5.05980762 11,5.35980762 L14.8,9.75980762 C15.6,7.35980762 16.3,5.25980762 16.3,4.55980762 C16.4,4.35980762 16.4,3.65980762 16.1,2.95980762 L0,5.45980762 L2.6,22.1598076 L11.2,20.7598076 C11.1,20.0598076 13.4,14.0598076 13.8,12.9598076 L9.4,13.6598076 L10,11.8598076 L13.1,11.3598076 L13.9,12.3598076 C13.9,12.3598076 14.1,11.8598076 14.1,11.6598076 L9.8,6.35980762 C9.6,6.05980762 9.6,5.65980762 9.9,5.45980762 L10.1,5.25980762 Z M4.1,12.8598076 L6.8,12.3598076 L6.1,14.1598076 L4.3,14.4598076 L4.1,12.8598076 Z M9.9,7.75980762 L10.2,7.85980762 C10.6,7.95980762 10.7,8.35980762 10.6,8.75980762 L7.6,16.7598076 L5.8,19.1598076 L6,16.1598076 L9,8.15980762 C9.1,7.75980762 9.5,7.65980762 9.9,7.75980762 Z" id="Shape"></path>
                </g>
            </g>
        </g>
    </g>
</svg>